<?xml version="1.0" encoding="UTF-8"?>
<svg xmlns="http://www.w3.org/2000/svg" xmlns:xlink="http://www.w3.org/1999/xlink" viewBox="0 0 32 32" width="32px" height="32px">
<g id="surface127701436">
<path style=" stroke:none;fill-rule:nonzero;fill:rgb(0%,0%,0%);fill-opacity:1;" d="M 18.101562 6.898438 C 14.242188 6.898438 11.101562 10.042969 11.101562 13.898438 C 11.101562 15.574219 11.6875 17.113281 12.675781 18.320312 L 7.097656 23.898438 L 8.101562 24.902344 L 13.679688 19.324219 C 14.886719 20.3125 16.421875 20.898438 18.101562 20.898438 C 21.957031 20.898438 25.101562 17.757812 25.101562 13.898438 C 25.101562 10.042969 21.957031 6.898438 18.101562 6.898438 Z M 18.101562 8.300781 C 21.199219 8.300781 23.699219 10.800781 23.699219 13.898438 C 23.699219 17 21.199219 19.5 18.101562 19.5 C 15 19.5 12.5 17 12.5 13.898438 C 12.5 10.800781 15 8.300781 18.101562 8.300781 Z M 18.101562 8.300781 "/>
</g>
</svg>
